<svg xmlns="http://www.w3.org/2000/svg" width="900" height="1400" viewBox="0 0 900 1400"><rect x="0" y="0" width="900" height="1400" rx="0" fill="#f4f1ec"/><rect x="0" y="0" width="900" height="113" rx="0" fill="#742f42"/><text xml:space="preserve" x="48" y="69" font-family="Arial,sans-serif" font-size="35" font-weight="700" fill="#fff9f2">media / databank</text><text xml:space="preserve" x="693" y="66" font-family="Arial,sans-serif" font-size="21" font-weight="700" fill="#e5cbd0">WORKSPACE</text><text xml:space="preserve" x="48" y="176" font-family="Arial,sans-serif" font-size="21" font-weight="700" fill="#8a6b73">THE EDITORIAL LIBRARY</text><text xml:space="preserve" x="48" y="241" font-family="Arial,sans-serif" font-size="54" font-weight="700" fill="#32282b">Find the work worth</text><text xml:space="preserve" x="48" y="302" font-family="Arial,sans-serif" font-size="54" font-weight="700" fill="#32282b">bringing forward.</text><rect x="48" y="341" width="804" height="71" rx="14" fill="#fff"/><text xml:space="preserve" x="76" y="387" font-family="Arial,sans-serif" font-size="27" font-weight="400" fill="#827477">⌕  Search projects, materials, quotes…</text><rect x="48" y="441" width="150" height="47" rx="23" fill="#742f42"/><text xml:space="preserve" x="73" y="473" font-family="Arial,sans-serif" font-size="23" font-weight="700" fill="#fff">All media</text><text xml:space="preserve" x="224" y="473" font-family="Arial,sans-serif" font-size="24" font-weight="400" fill="#74666c">Photos     Artwork     Quotes</text><rect x="48" y="523" width="387" height="365" rx="14" fill="#fff"/><rect x="64" y="539" width="355" height="203" rx="9" fill="#e4d4b8"/><path d="M102 704q38 -127 83 0q56 -111 177 -39" fill="none" stroke="#677a53" stroke-width="7"/><circle cx="242" cy="632" r="62" fill="none" stroke="#677a53" stroke-width="7"/><text xml:space="preserve" x="70" y="791" font-family="Arial,sans-serif" font-size="28" font-weight="700" fill="#32282b">Drawing with light</text><text xml:space="preserve" x="70" y="833" font-family="Arial,sans-serif" font-size="23" font-weight="400" fill="#827477">Artwork · page 08</text><text xml:space="preserve" x="70" y="868" font-family="Arial,sans-serif" font-size="20" font-weight="700" fill="#597156">SOURCE ATTACHED</text><rect x="465" y="523" width="387" height="365" rx="14" fill="#fff"/><rect x="481" y="539" width="355" height="203" rx="9" fill="#dbe1d2"/><circle cx="570" cy="641" r="53" fill="#976849"/><rect x="657" y="580" width="106" height="123" rx="8" fill="#976849"/><text xml:space="preserve" x="487" y="791" font-family="Arial,sans-serif" font-size="28" font-weight="700" fill="#32282b">Material stories</text><text xml:space="preserve" x="487" y="833" font-family="Arial,sans-serif" font-size="23" font-weight="400" fill="#827477">Photo · page 12</text><text xml:space="preserve" x="487" y="868" font-family="Arial,sans-serif" font-size="20" font-weight="700" fill="#597156">SOURCE ATTACHED</text><rect x="48" y="918" width="804" height="185" rx="14" fill="#e9e2d6"/><text xml:space="preserve" x="76" y="961" font-family="Arial,sans-serif" font-size="20" font-weight="700" fill="#827477">QUOTE / ILLUSTRATIVE RECORD</text><text xml:space="preserve" x="76" y="1018" font-family="Arial,sans-serif" font-size="37" font-weight="700" fill="#742f42">“What could we try next?”</text><text xml:space="preserve" x="76" y="1066" font-family="Arial,sans-serif" font-size="24" font-weight="400" fill="#74666c">Attribution to verify · source page 16</text><rect x="48" y="1131" width="804" height="123" rx="14" fill="#fff"/><text xml:space="preserve" x="76" y="1178" font-family="Arial,sans-serif" font-size="26" font-weight="700" fill="#32282b">Review before reuse</text><text xml:space="preserve" x="76" y="1220" font-family="Arial,sans-serif" font-size="23" font-weight="400" fill="#74666c">Check attribution, permissions and publication context.</text><text xml:space="preserve" x="80" y="1310" font-family="Arial,sans-serif" font-size="25" font-weight="700" fill="#742f42">Library           Collections           Review queue</text><text xml:space="preserve" x="48" y="1374" font-family="Arial,sans-serif" font-size="20" font-weight="400" fill="#827477">INTERFACE STUDY · FICTIONAL RECORDS AND ARTWORK</text></svg>